<svg xmlns="http://www.w3.org/2000/svg" version="1.1" xmlns:xlink="http://www.w3.org/1999/xlink" xmlns:svgjs="http://svgjs.dev/svgjs" viewBox="0 0 2400 800" opacity="1"><g fill="hsla(0, 0%, 100%, 1.00)" transform="matrix(1,0,0,1,9.109130859375,126.00086975097656)"><path d="M-10,10C37.53787878787879,19.375,125.18939393939395,61.875,218.1818181818182,55C311.17424242424244,48.125,345.4545454545455,-20.291666666666668,436.3636363636364,-23C527.2727272727273,-25.708333333333332,563.6363636363636,38.666666666666664,654.5454545454545,42C745.4545454545454,45.333333333333336,781.8181818181818,-5.333333333333334,872.7272727272727,-7C963.6363636363637,-8.666666666666666,1000.0000000000001,32.541666666666664,1090.909090909091,34C1181.818181818182,35.458333333333336,1218.181818181818,-3.958333333333333,1309.090909090909,0C1400,3.958333333333333,1436.3636363636363,58,1527.2727272727273,53C1618.1818181818182,48,1654.5454545454545,-24.416666666666668,1745.4545454545455,-24C1836.3636363636365,-23.583333333333332,1872.7272727272727,53.125,1963.6363636363637,55C2054.5454545454545,56.875,2090.909090909091,-15.416666666666666,2181.818181818182,-15C2272.727272727273,-14.583333333333334,2302.462121212121,-29.458333333333343,2400,57C2497.537878787879,143.45833333333334,3254.1666666666665,224.375,2650,400C2045.8333333333335,575.625,156.25,795.8333333333334,-500,900" transform="matrix(1,0,0,1,0,118)" opacity="0.05"></path><path d="M-10,10C37.53787878787879,19.375,125.18939393939395,61.875,218.1818181818182,55C311.17424242424244,48.125,345.4545454545455,-20.291666666666668,436.3636363636364,-23C527.2727272727273,-25.708333333333332,563.6363636363636,38.666666666666664,654.5454545454545,42C745.4545454545454,45.333333333333336,781.8181818181818,-5.333333333333334,872.7272727272727,-7C963.6363636363637,-8.666666666666666,1000.0000000000001,32.541666666666664,1090.909090909091,34C1181.818181818182,35.458333333333336,1218.181818181818,-3.958333333333333,1309.090909090909,0C1400,3.958333333333333,1436.3636363636363,58,1527.2727272727273,53C1618.1818181818182,48,1654.5454545454545,-24.416666666666668,1745.4545454545455,-24C1836.3636363636365,-23.583333333333332,1872.7272727272727,53.125,1963.6363636363637,55C2054.5454545454545,56.875,2090.909090909091,-15.416666666666666,2181.818181818182,-15C2272.727272727273,-14.583333333333334,2302.462121212121,-29.458333333333343,2400,57C2497.537878787879,143.45833333333334,3254.1666666666665,224.375,2650,400C2045.8333333333335,575.625,156.25,795.8333333333334,-500,900" transform="matrix(1,0,0,1,0,236)" opacity="0.53"></path><path d="M-10,10C37.53787878787879,19.375,125.18939393939395,61.875,218.1818181818182,55C311.17424242424244,48.125,345.4545454545455,-20.291666666666668,436.3636363636364,-23C527.2727272727273,-25.708333333333332,563.6363636363636,38.666666666666664,654.5454545454545,42C745.4545454545454,45.333333333333336,781.8181818181818,-5.333333333333334,872.7272727272727,-7C963.6363636363637,-8.666666666666666,1000.0000000000001,32.541666666666664,1090.909090909091,34C1181.818181818182,35.458333333333336,1218.181818181818,-3.958333333333333,1309.090909090909,0C1400,3.958333333333333,1436.3636363636363,58,1527.2727272727273,53C1618.1818181818182,48,1654.5454545454545,-24.416666666666668,1745.4545454545455,-24C1836.3636363636365,-23.583333333333332,1872.7272727272727,53.125,1963.6363636363637,55C2054.5454545454545,56.875,2090.909090909091,-15.416666666666666,2181.818181818182,-15C2272.727272727273,-14.583333333333334,2302.462121212121,-29.458333333333343,2400,57C2497.537878787879,143.45833333333334,3254.1666666666665,224.375,2650,400C2045.8333333333335,575.625,156.25,795.8333333333334,-500,900" transform="matrix(1,0,0,1,0,354)" opacity="1.00"></path></g></svg>