<?xml version="1.0" standalone="no"?>
<svg xmlns:xlink="http://www.w3.org/1999/xlink" id="wave" style="transform:rotate(0deg); transition: 0.3s" viewBox="0 0 1440 170" version="1.1" xmlns="http://www.w3.org/2000/svg"><defs><linearGradient id="sw-gradient-0" x1="0" x2="0" y1="1" y2="0"><stop stop-color="rgba(146, 158, 196, 1)" offset="0%"/><stop stop-color="rgba(146, 158, 196, 1)" offset="100%"/></linearGradient></defs><path style="transform:translate(0, 0px); opacity:1" fill="url(#sw-gradient-0)" d="M0,85L48,70.8C96,57,192,28,288,31.2C384,34,480,68,576,90.7C672,113,768,125,864,121.8C960,119,1056,102,1152,82.2C1248,62,1344,40,1440,48.2C1536,57,1632,96,1728,102C1824,108,1920,79,2016,73.7C2112,68,2208,85,2304,102C2400,119,2496,136,2592,144.5C2688,153,2784,153,2880,141.7C2976,130,3072,108,3168,87.8C3264,68,3360,51,3456,45.3C3552,40,3648,45,3744,48.2C3840,51,3936,51,4032,42.5C4128,34,4224,17,4320,8.5C4416,0,4512,0,4608,5.7C4704,11,4800,23,4896,48.2C4992,74,5088,113,5184,127.5C5280,142,5376,130,5472,116.2C5568,102,5664,85,5760,65.2C5856,45,5952,23,6048,19.8C6144,17,6240,34,6336,39.7C6432,45,6528,40,6624,51C6720,62,6816,91,6864,104.8L6912,119L6912,170L6864,170C6816,170,6720,170,6624,170C6528,170,6432,170,6336,170C6240,170,6144,170,6048,170C5952,170,5856,170,5760,170C5664,170,5568,170,5472,170C5376,170,5280,170,5184,170C5088,170,4992,170,4896,170C4800,170,4704,170,4608,170C4512,170,4416,170,4320,170C4224,170,4128,170,4032,170C3936,170,3840,170,3744,170C3648,170,3552,170,3456,170C3360,170,3264,170,3168,170C3072,170,2976,170,2880,170C2784,170,2688,170,2592,170C2496,170,2400,170,2304,170C2208,170,2112,170,2016,170C1920,170,1824,170,1728,170C1632,170,1536,170,1440,170C1344,170,1248,170,1152,170C1056,170,960,170,864,170C768,170,672,170,576,170C480,170,384,170,288,170C192,170,96,170,48,170L0,170Z"/></svg>